<svg xmlns="http://www.w3.org/2000/svg" viewBox="0 0 320 160" role="img" aria-label="ControlFlow for Codex logo">
  <defs>
    <linearGradient id="cf-logo-bg" x1="0" y1="0" x2="320" y2="160" gradientUnits="userSpaceOnUse">
      <stop offset="0" stop-color="#080C17"/>
      <stop offset="0.5" stop-color="#111827"/>
      <stop offset="1" stop-color="#164E63"/>
    </linearGradient>
    <linearGradient id="cf-logo-tile" x1="28" y1="22" x2="134" y2="136" gradientUnits="userSpaceOnUse">
      <stop offset="0" stop-color="#111827"/>
      <stop offset="0.54" stop-color="#172554"/>
      <stop offset="1" stop-color="#0F766E"/>
    </linearGradient>
    <linearGradient id="cf-logo-flow" x1="50" y1="52" x2="111" y2="105" gradientUnits="userSpaceOnUse">
      <stop offset="0" stop-color="#A7F3D0"/>
      <stop offset="0.52" stop-color="#22D3EE"/>
      <stop offset="1" stop-color="#F8FAFC"/>
    </linearGradient>
    <linearGradient id="cf-logo-text" x1="154" y1="47" x2="282" y2="94" gradientUnits="userSpaceOnUse">
      <stop offset="0" stop-color="#F8FAFC"/>
      <stop offset="1" stop-color="#CFFAFE"/>
    </linearGradient>
    <filter id="cf-logo-glow" x="-25%" y="-25%" width="150%" height="150%">
      <feGaussianBlur stdDeviation="2.2" result="blur"/>
      <feMerge>
        <feMergeNode in="blur"/>
        <feMergeNode in="SourceGraphic"/>
      </feMerge>
    </filter>
  </defs>
  <rect width="320" height="160" rx="24" fill="url(#cf-logo-bg)"/>
  <path d="M162 28h112c12.2 0 22 9.8 22 22v54c0 12.2-9.8 22-22 22H162c-12.2 0-22-9.8-22-22V50c0-12.2 9.8-22 22-22z" fill="#0F172A" opacity="0.35"/>
  <rect x="24" y="24" width="112" height="112" rx="24" fill="url(#cf-logo-tile)"/>
  <path d="M54 56c21-13 50-2 54 23 4 27-29 41-50 22" fill="none" stroke="#0E7490" stroke-width="18" stroke-linecap="round" opacity="0.42"/>
  <path d="M54 56c21-13 50-2 54 23 4 27-29 41-50 22" fill="none" stroke="url(#cf-logo-flow)" stroke-width="10" stroke-linecap="round" filter="url(#cf-logo-glow)"/>
  <path d="M62 101c9-14 21-16 35-7" fill="none" stroke="#67E8F9" stroke-width="8" stroke-linecap="round"/>
  <path d="M80 67l11 11-11 11-11-11z" fill="#111827" stroke="#BAE6FD" stroke-width="4" stroke-linejoin="round"/>
  <circle cx="54" cy="56" r="9" fill="#ECFEFF" stroke="#22D3EE" stroke-width="3.5"/>
  <circle cx="108" cy="79" r="9" fill="#ECFEFF" stroke="#34D399" stroke-width="3.5"/>
  <circle cx="58" cy="101" r="9" fill="#ECFEFF" stroke="#A78BFA" stroke-width="3.5"/>
  <circle cx="97" cy="94" r="7" fill="#22D3EE"/>
  <text x="156" y="72" fill="url(#cf-logo-text)" font-family="Segoe UI, Arial, sans-serif" font-size="26" font-weight="750">ControlFlow</text>
  <text x="158" y="105" fill="#67E8F9" font-family="Segoe UI, Arial, sans-serif" font-size="20" font-weight="600">for Codex</text>
  <path d="M158 118h86" stroke="#34D399" stroke-width="3" stroke-linecap="round" opacity="0.82"/>
  <circle cx="257" cy="118" r="4" fill="#A7F3D0"/>
</svg>
